<?xml version="1.0" encoding="UTF-8" standalone="no"?><svg xmlns="http://www.w3.org/2000/svg" xmlns:xlink="http://www.w3.org/1999/xlink" contentScriptType="application/ecmascript" contentStyleType="text/css" height="405px" preserveAspectRatio="none" style="width:911px;height:405px;" version="1.1" viewBox="0 0 911 405" width="911px" zoomAndPan="magnify"><defs/><g><text fill="#000000" font-family="sans-serif" font-size="12" lengthAdjust="spacingAndGlyphs" textLength="179" x="26" y="19.752">drivers/media/usb/uvc/uvc_v4l2.c</text><text fill="#000000" font-family="sans-serif" font-size="12" lengthAdjust="spacingAndGlyphs" textLength="223" x="46" y="36.1406">const struct v4l2_ioctl_ops uvc_ioctl_ops</text><text fill="#000000" font-family="sans-serif" font-size="12" lengthAdjust="spacingAndGlyphs" textLength="214" x="66" y="52.5293">.vidioc_streamon = uvc_ioctl_streamon</text><text fill="#000000" font-family="sans-serif" font-size="12" lengthAdjust="spacingAndGlyphs" textLength="279" x="86" y="68.918">ret = uvc_queue_streamon(&amp;stream-&gt;queue, type);</text><text fill="#000000" font-family="sans-serif" font-size="12" lengthAdjust="spacingAndGlyphs" textLength="234" x="106" y="85.3066">ret = vb2_streamon(&amp;queue-&gt;queue, type);</text><text fill="#000000" font-family="sans-serif" font-size="12" lengthAdjust="spacingAndGlyphs" textLength="274" x="126" y="101.6953">drivers/media/common/videobuf2/videobuf2-v4l2.c</text><text fill="#000000" font-family="sans-serif" font-size="12" lengthAdjust="spacingAndGlyphs" textLength="156" x="146" y="118.084">vb2_core_streamon(q, type);</text><text fill="#000000" font-family="sans-serif" font-size="12" lengthAdjust="spacingAndGlyphs" textLength="158" x="166" y="134.4727">ret = vb2_start_streaming(q);</text><text fill="#000000" font-family="sans-serif" font-size="12" lengthAdjust="spacingAndGlyphs" textLength="423" x="186" y="150.8613">ret = call_qop(q, start_streaming, q, atomic_read(&amp;q-&gt;owned_by_drv_count));</text><text fill="#000000" font-family="sans-serif" font-size="12" lengthAdjust="spacingAndGlyphs" textLength="192" x="206" y="167.25">drivers/media/usb/uvc/uvc_queue.c</text><text fill="#000000" font-family="sans-serif" font-size="12" lengthAdjust="spacingAndGlyphs" textLength="243" x="226" y="183.6387">static const struct vb2_ops uvc_queue_qops</text><text fill="#000000" font-family="sans-serif" font-size="12" lengthAdjust="spacingAndGlyphs" textLength="215" x="246" y="200.0273">.start_streaming = uvc_start_streaming</text><text fill="#000000" font-family="sans-serif" font-size="12" lengthAdjust="spacingAndGlyphs" textLength="189" x="266" y="216.416">ret = uvc_video_enable(stream, 1);</text><text fill="#000000" font-family="sans-serif" font-size="12" lengthAdjust="spacingAndGlyphs" textLength="259" x="286" y="232.8047">ret = uvc_commit_video(stream, &amp;stream-&gt;ctrl);</text><text fill="#000000" font-family="sans-serif" font-size="12" lengthAdjust="spacingAndGlyphs" textLength="240" x="286" y="249.1934">ret = uvc_init_video(stream, GFP_KERNEL);</text><text fill="#000000" font-family="sans-serif" font-size="12" lengthAdjust="spacingAndGlyphs" textLength="292" x="306" y="265.582">ret = uvc_init_video_isoc(stream, best_ep, gfp_flags);</text><text fill="#000000" font-family="sans-serif" font-size="12" lengthAdjust="spacingAndGlyphs" textLength="208" x="326" y="281.9707">urb-&gt;complete = uvc_video_complete;</text><text fill="#000000" font-family="sans-serif" font-size="12" lengthAdjust="spacingAndGlyphs" textLength="246" x="346" y="298.3594">stream-&gt;decode(urb, stream, buf, buf_meta);</text><text fill="#000000" font-family="sans-serif" font-size="12" lengthAdjust="spacingAndGlyphs" textLength="186" x="366" y="314.748">drivers/media/usb/uvc/uvc_video.c</text><text fill="#000000" font-family="sans-serif" font-size="12" lengthAdjust="spacingAndGlyphs" textLength="262" x="386" y="331.1367">int uvc_video_init(struct uvc_streaming *stream)</text><text fill="#000000" font-family="sans-serif" font-size="12" lengthAdjust="spacingAndGlyphs" textLength="239" x="406" y="347.5254">stream-&gt;decode = uvc_video_decode_isoc;</text><text fill="#000000" font-family="sans-serif" font-size="12" lengthAdjust="spacingAndGlyphs" textLength="239" x="406" y="363.9141">stream-&gt;decode = uvc_video_decode_bulk;</text><text fill="#000000" font-family="sans-serif" font-size="12" lengthAdjust="spacingAndGlyphs" textLength="261" x="306" y="380.3027">ret = uvc_init_video_bulk(stream, ep, gfp_flags);</text><text fill="#000000" font-family="sans-serif" font-size="12" lengthAdjust="spacingAndGlyphs" textLength="578" x="326" y="396.6914">usb_fill_bulk_urb(urb, stream-&gt;dev-&gt;udev, pipe, stream-&gt;urb_buffer[i], size, uvc_video_complete, stream);</text><rect fill="none" height="2" style="stroke: #888888; stroke-width: 1.0;" width="2" x="19" y="13.1943"/><rect fill="none" height="2" style="stroke: #888888; stroke-width: 1.0;" width="2" x="39" y="29.583"/><line style="stroke: #888888; stroke-width: 1.0;" x1="20" x2="20" y1="16.1943" y2="30.583"/><line style="stroke: #888888; stroke-width: 1.0;" x1="20" x2="38" y1="30.583" y2="30.583"/><rect fill="none" height="2" style="stroke: #888888; stroke-width: 1.0;" width="2" x="59" y="45.9717"/><line style="stroke: #888888; stroke-width: 1.0;" x1="40" x2="40" y1="32.583" y2="46.9717"/><line style="stroke: #888888; stroke-width: 1.0;" x1="40" x2="58" y1="46.9717" y2="46.9717"/><rect fill="none" height="2" style="stroke: #888888; stroke-width: 1.0;" width="2" x="79" y="62.3604"/><line style="stroke: #888888; stroke-width: 1.0;" x1="60" x2="60" y1="48.9717" y2="63.3604"/><line style="stroke: #888888; stroke-width: 1.0;" x1="60" x2="78" y1="63.3604" y2="63.3604"/><rect fill="none" height="2" style="stroke: #888888; stroke-width: 1.0;" width="2" x="99" y="78.749"/><line style="stroke: #888888; stroke-width: 1.0;" x1="80" x2="80" y1="65.3604" y2="79.749"/><line style="stroke: #888888; stroke-width: 1.0;" x1="80" x2="98" y1="79.749" y2="79.749"/><rect fill="none" height="2" style="stroke: #888888; stroke-width: 1.0;" width="2" x="119" y="95.1377"/><line style="stroke: #888888; stroke-width: 1.0;" x1="100" x2="100" y1="81.749" y2="96.1377"/><line style="stroke: #888888; stroke-width: 1.0;" x1="100" x2="118" y1="96.1377" y2="96.1377"/><rect fill="none" height="2" style="stroke: #888888; stroke-width: 1.0;" width="2" x="139" y="111.5264"/><line style="stroke: #888888; stroke-width: 1.0;" x1="120" x2="120" y1="98.1377" y2="112.5264"/><line style="stroke: #888888; stroke-width: 1.0;" x1="120" x2="138" y1="112.5264" y2="112.5264"/><rect fill="none" height="2" style="stroke: #888888; stroke-width: 1.0;" width="2" x="159" y="127.915"/><line style="stroke: #888888; stroke-width: 1.0;" x1="140" x2="140" y1="114.5264" y2="128.915"/><line style="stroke: #888888; stroke-width: 1.0;" x1="140" x2="158" y1="128.915" y2="128.915"/><rect fill="none" height="2" style="stroke: #888888; stroke-width: 1.0;" width="2" x="179" y="144.3037"/><line style="stroke: #888888; stroke-width: 1.0;" x1="160" x2="160" y1="130.915" y2="145.3037"/><line style="stroke: #888888; stroke-width: 1.0;" x1="160" x2="178" y1="145.3037" y2="145.3037"/><rect fill="none" height="2" style="stroke: #888888; stroke-width: 1.0;" width="2" x="199" y="160.6924"/><line style="stroke: #888888; stroke-width: 1.0;" x1="180" x2="180" y1="147.3037" y2="161.6924"/><line style="stroke: #888888; stroke-width: 1.0;" x1="180" x2="198" y1="161.6924" y2="161.6924"/><rect fill="none" height="2" style="stroke: #888888; stroke-width: 1.0;" width="2" x="219" y="177.0811"/><line style="stroke: #888888; stroke-width: 1.0;" x1="200" x2="200" y1="163.6924" y2="178.0811"/><line style="stroke: #888888; stroke-width: 1.0;" x1="200" x2="218" y1="178.0811" y2="178.0811"/><rect fill="none" height="2" style="stroke: #888888; stroke-width: 1.0;" width="2" x="239" y="193.4697"/><line style="stroke: #888888; stroke-width: 1.0;" x1="220" x2="220" y1="180.0811" y2="194.4697"/><line style="stroke: #888888; stroke-width: 1.0;" x1="220" x2="238" y1="194.4697" y2="194.4697"/><rect fill="none" height="2" style="stroke: #888888; stroke-width: 1.0;" width="2" x="259" y="209.8584"/><line style="stroke: #888888; stroke-width: 1.0;" x1="240" x2="240" y1="196.4697" y2="210.8584"/><line style="stroke: #888888; stroke-width: 1.0;" x1="240" x2="258" y1="210.8584" y2="210.8584"/><line style="stroke: #888888; stroke-width: 1.0;" x1="260" x2="260" y1="212.8584" y2="227.2471"/><line style="stroke: #888888; stroke-width: 1.0;" x1="260" x2="278" y1="227.2471" y2="227.2471"/><rect fill="none" height="2" style="stroke: #888888; stroke-width: 1.0;" width="2" x="279" y="242.6357"/><line style="stroke: #888888; stroke-width: 1.0;" x1="260" x2="260" y1="212.8584" y2="243.6357"/><line style="stroke: #888888; stroke-width: 1.0;" x1="260" x2="278" y1="243.6357" y2="243.6357"/><rect fill="none" height="2" style="stroke: #888888; stroke-width: 1.0;" width="2" x="299" y="259.0244"/><line style="stroke: #888888; stroke-width: 1.0;" x1="280" x2="280" y1="245.6357" y2="260.0244"/><line style="stroke: #888888; stroke-width: 1.0;" x1="280" x2="298" y1="260.0244" y2="260.0244"/><rect fill="none" height="2" style="stroke: #888888; stroke-width: 1.0;" width="2" x="319" y="275.4131"/><line style="stroke: #888888; stroke-width: 1.0;" x1="300" x2="300" y1="262.0244" y2="276.4131"/><line style="stroke: #888888; stroke-width: 1.0;" x1="300" x2="318" y1="276.4131" y2="276.4131"/><rect fill="none" height="2" style="stroke: #888888; stroke-width: 1.0;" width="2" x="339" y="291.8018"/><line style="stroke: #888888; stroke-width: 1.0;" x1="320" x2="320" y1="278.4131" y2="292.8018"/><line style="stroke: #888888; stroke-width: 1.0;" x1="320" x2="338" y1="292.8018" y2="292.8018"/><rect fill="none" height="2" style="stroke: #888888; stroke-width: 1.0;" width="2" x="359" y="308.1904"/><line style="stroke: #888888; stroke-width: 1.0;" x1="340" x2="340" y1="294.8018" y2="309.1904"/><line style="stroke: #888888; stroke-width: 1.0;" x1="340" x2="358" y1="309.1904" y2="309.1904"/><rect fill="none" height="2" style="stroke: #888888; stroke-width: 1.0;" width="2" x="379" y="324.5791"/><line style="stroke: #888888; stroke-width: 1.0;" x1="360" x2="360" y1="311.1904" y2="325.5791"/><line style="stroke: #888888; stroke-width: 1.0;" x1="360" x2="378" y1="325.5791" y2="325.5791"/><line style="stroke: #888888; stroke-width: 1.0;" x1="380" x2="380" y1="327.5791" y2="341.9678"/><line style="stroke: #888888; stroke-width: 1.0;" x1="380" x2="398" y1="341.9678" y2="341.9678"/><line style="stroke: #888888; stroke-width: 1.0;" x1="380" x2="380" y1="327.5791" y2="358.3564"/><line style="stroke: #888888; stroke-width: 1.0;" x1="380" x2="398" y1="358.3564" y2="358.3564"/><rect fill="none" height="2" style="stroke: #888888; stroke-width: 1.0;" width="2" x="299" y="373.7451"/><line style="stroke: #888888; stroke-width: 1.0;" x1="280" x2="280" y1="245.6357" y2="374.7451"/><line style="stroke: #888888; stroke-width: 1.0;" x1="280" x2="298" y1="374.7451" y2="374.7451"/><line style="stroke: #888888; stroke-width: 1.0;" x1="300" x2="300" y1="376.7451" y2="391.1338"/><line style="stroke: #888888; stroke-width: 1.0;" x1="300" x2="318" y1="391.1338" y2="391.1338"/></g></svg>